# This file uses centimeters as units for non-parametric coordinates.

v 0.103787 -0.398436 -0.103787
v -0.000000 -0.371417 -0.146777
v -0.103787 -0.398436 -0.103787
v -0.146777 -0.398436 -0.000000
v -0.103787 -0.398436 0.103787
v -0.000000 -0.371417 0.146776
v 0.103787 -0.398436 0.103787
v 0.146776 -0.398436 -0.000000
v 0.191773 -0.314757 -0.191773
v -0.000000 -0.314757 -0.271208
v -0.191773 -0.314757 -0.191773
v -0.271208 -0.314757 -0.000000
v -0.191773 -0.314757 0.191773
v -0.000000 -0.314757 0.271208
v 0.191773 -0.314757 0.191773
v 0.271208 -0.314757 -0.000000
v 0.250563 -0.190839 -0.250563
v -0.000000 -0.190839 -0.354350
v -0.250563 -0.190839 -0.250563
v -0.354350 -0.190839 -0.000000
v -0.250563 -0.190839 0.250563
v -0.000000 -0.190839 0.354350
v 0.250563 -0.190839 0.250563
v 0.354350 -0.190839 -0.000000
v 0.271208 -0.044062 -0.271208
v -0.000000 -0.044062 -0.383545
v -0.271208 -0.044062 -0.271208
v -0.383545 -0.044062 -0.000000
v -0.271208 -0.044062 0.271208
v -0.000000 -0.044062 0.383545
v 0.271208 -0.044062 0.271208
v 0.383545 -0.044062 -0.000000
v 0.250563 0.095564 -0.250563
v -0.000000 0.095564 -0.354350
v -0.250563 0.095564 -0.250563
v -0.354350 0.095564 -0.000000
v -0.250563 0.095564 0.250563
v -0.000000 0.095564 0.354350
v 0.250563 0.095564 0.250563
v 0.354350 0.095564 -0.000000
v 0.191773 0.178825 -0.191773
v -0.000000 0.178825 -0.271208
v -0.191773 0.178825 -0.191773
v -0.271208 0.178825 -0.000000
v -0.191773 0.178825 0.191773
v -0.000000 0.178825 0.271208
v 0.191773 0.178825 0.191773
v 0.271208 0.178825 -0.000000
v 0.103787 0.236848 -0.103787
v -0.000000 0.205539 -0.146777
v -0.103787 0.236848 -0.103787
v -0.146777 0.236848 -0.000000
v -0.103787 0.236848 0.103787
v -0.000000 0.205539 0.146776
v 0.103787 0.236848 0.103787
v 0.146776 0.236848 -0.000000
v -0.000000 -0.326671 -0.000000
v -0.000000 0.149604 -0.000000
v 0.017668 0.098282 -0.030602
v -0.017668 0.098282 -0.030602
v -0.035336 0.098282 -0.000000
v -0.017668 0.098282 0.030602
v 0.017668 0.098282 0.030602
v 0.035336 0.098282 -0.000000
v 0.017668 0.272801 -0.030602
v -0.017668 0.272801 -0.030602
v -0.035336 0.272801 -0.000000
v -0.017668 0.272801 0.030602
v 0.017668 0.272801 0.030602
v 0.035336 0.272801 -0.000000
v -0.000000 0.098282 -0.000000
v -0.022584 0.390692 -0.030602
v -0.054344 0.375202 -0.030602
v -0.038464 0.382947 -0.000000
v -0.070225 0.367458 -0.000000
v -0.054344 0.375202 0.030602
v -0.022584 0.390692 0.030602
v -0.006704 0.398436 0.000000
vt 0.000000 0.125000
vt 0.125000 0.125000
vt 0.250000 0.125000
vt 0.375000 0.125000
vt 0.500000 0.125000
vt 0.625000 0.125000
vt 0.750000 0.125000
vt 0.875000 0.125000
vt 1.000000 0.125000
vt 0.000000 0.250000
vt 0.125000 0.250000
vt 0.250000 0.250000
vt 0.375000 0.250000
vt 0.500000 0.250000
vt 0.625000 0.250000
vt 0.750000 0.250000
vt 0.875000 0.250000
vt 1.000000 0.250000
vt 0.000000 0.375000
vt 0.125000 0.375000
vt 0.250000 0.375000
vt 0.375000 0.375000
vt 0.500000 0.375000
vt 0.625000 0.375000
vt 0.750000 0.375000
vt 0.875000 0.375000
vt 1.000000 0.375000
vt 0.000000 0.500000
vt 0.125000 0.500000
vt 0.250000 0.500000
vt 0.375000 0.500000
vt 0.500000 0.500000
vt 0.625000 0.500000
vt 0.750000 0.500000
vt 0.875000 0.500000
vt 1.000000 0.500000
vt 0.000000 0.625000
vt 0.125000 0.625000
vt 0.250000 0.625000
vt 0.375000 0.625000
vt 0.500000 0.625000
vt 0.625000 0.625000
vt 0.750000 0.625000
vt 0.875000 0.625000
vt 1.000000 0.625000
vt 0.000000 0.750000
vt 0.125000 0.750000
vt 0.250000 0.750000
vt 0.375000 0.750000
vt 0.500000 0.750000
vt 0.625000 0.750000
vt 0.750000 0.750000
vt 0.875000 0.750000
vt 1.000000 0.750000
vt 0.000000 0.875000
vt 0.125000 0.875000
vt 0.250000 0.875000
vt 0.375000 0.875000
vt 0.500000 0.875000
vt 0.625000 0.875000
vt 0.750000 0.875000
vt 0.875000 0.875000
vt 1.000000 0.875000
vt 0.062500 0.000000
vt 0.187500 0.000000
vt 0.312500 0.000000
vt 0.437500 0.000000
vt 0.562500 0.000000
vt 0.687500 0.000000
vt 0.812500 0.000000
vt 0.937500 0.000000
vt 0.062500 1.000000
vt 0.187500 1.000000
vt 0.312500 1.000000
vt 0.437500 1.000000
vt 0.562500 1.000000
vt 0.687500 1.000000
vt 0.812500 1.000000
vt 0.937500 1.000000
vt 0.375000 0.312500
vt 0.416667 0.312500
vt 0.416667 0.688440
vt 0.375000 0.688440
vt 0.458333 0.312500
vt 0.458333 0.688440
vt 0.500000 0.312500
vt 0.500000 0.688440
vt 0.541667 0.312500
vt 0.541667 0.688440
vt 0.583333 0.312500
vt 0.583333 0.688440
vt 0.625000 0.312500
vt 0.625000 0.688440
vt 0.421875 0.020934
vt 0.578125 0.020934
vt 0.500000 0.150000
vt 0.343750 0.156250
vt 0.421875 0.291566
vt 0.578125 0.291566
vt 0.656250 0.156250
vt 0.578125 0.979066
vt 0.421875 0.979066
vt 0.500000 0.837500
vt 0.343750 0.843750
vt 0.421875 0.708434
vt 0.578125 0.708434
vt 0.656250 0.843750
vt 0.578125 0.979066
vt 0.421875 0.979066
vt 0.343750 0.843750
vt 0.421875 0.708434
vt 0.578125 0.708434
vt 0.656250 0.843750
vn 0.227183 -0.935869 -0.269326
vn 0.000000 -0.925536 -0.378659
vn 0.000000 -0.663257 -0.748392
vn 0.525305 -0.664347 -0.531693
vn -0.227183 -0.935869 -0.269327
vn -0.525305 -0.664347 -0.531693
vn -0.393392 -0.919371 0.000000
vn -0.755734 -0.654879 -0.000000
vn -0.227183 -0.935869 0.269327
vn -0.525305 -0.664347 0.531693
vn -0.000000 -0.925536 0.378659
vn 0.000000 -0.663257 0.748392
vn 0.227183 -0.935869 0.269327
vn 0.525305 -0.664347 0.531693
vn 0.393392 -0.919371 0.000000
vn 0.755734 -0.654879 -0.000000
vn -0.000000 -0.350323 -0.936629
vn 0.662296 -0.350323 -0.662297
vn -0.662297 -0.350324 -0.662297
vn -0.936629 -0.350324 0.000000
vn -0.662297 -0.350324 0.662296
vn 0.000000 -0.350323 0.936629
vn 0.662297 -0.350324 0.662297
vn 0.936629 -0.350323 -0.000000
vn 0.000000 -0.000251 -1.000000
vn 0.707107 -0.000251 -0.707107
vn -0.707107 -0.000251 -0.707107
vn -1.000000 -0.000251 0.000000
vn -0.707107 -0.000251 0.707107
vn 0.000000 -0.000251 1.000000
vn 0.707107 -0.000251 0.707107
vn 1.000000 -0.000251 -0.000000
vn -0.000000 0.397876 -0.917439
vn 0.648727 0.397876 -0.648728
vn -0.648727 0.397876 -0.648727
vn -0.917439 0.397876 0.000000
vn -0.648728 0.397876 0.648727
vn -0.000000 0.397876 0.917439
vn 0.648727 0.397876 0.648728
vn 0.917439 0.397876 -0.000000
vn -0.000000 0.797208 -0.603705
vn 0.422240 0.797561 -0.430825
vn -0.422240 0.797561 -0.430825
vn -0.619298 0.785156 0.000000
vn -0.422240 0.797561 0.430825
vn -0.000000 0.797208 0.603705
vn 0.422240 0.797561 0.430825
vn 0.619298 0.785156 -0.000000
vn 0.000000 0.977638 -0.210297
vn 0.099590 0.982521 -0.157274
vn -0.099590 0.982521 -0.157274
vn -0.236611 0.971605 0.000000
vn -0.099590 0.982521 0.157274
vn 0.000000 0.977638 0.210297
vn 0.099590 0.982521 0.157274
vn 0.236611 0.971605 0.000000
vn -0.000000 -1.000000 0.000000
vn -0.000000 1.000000 0.000000
vn 0.500000 0.000000 -0.866025
vn -0.500000 0.000000 -0.866026
vn -0.454332 -0.055270 -0.889116
vn 0.535636 0.078728 -0.840771
vn -1.000000 0.000000 -0.000000
vn -0.990347 -0.138609 0.000000
vn -0.500000 0.000000 0.866025
vn -0.454333 -0.055270 0.889115
vn 0.500000 0.000000 0.866025
vn 0.535635 0.078727 0.840772
vn 1.000000 0.000000 0.000000
vn 0.991628 0.129126 -0.000000
vn 0.000000 -1.000000 0.000000
vn 0.000000 -1.000000 0.000000
vn 0.000000 -1.000000 0.000000
vn 0.000000 -1.000000 0.000000
vn 0.000000 -1.000000 -0.000000
vn 0.000000 -1.000000 0.000000
vn 0.000000 -1.000000 0.000000
vn -0.438336 0.898811 -0.000002
vn -0.438340 0.898809 -0.000005
vn -0.438337 0.898811 -0.000000
vn -0.438340 0.898809 -0.000001
vn -0.438340 0.898809 0.000004
vn -0.438336 0.898811 0.000002
vn -0.438333 0.898813 0.000000
vn -0.430938 -0.156505 -0.888706
vn 0.535651 0.181006 -0.824812
vn -0.939935 -0.341354 -0.000001
vn -0.430942 -0.156505 0.888704
vn 0.535649 0.181004 0.824814
vn 0.947372 0.320134 0.000000
s 1
f 1/1/1 2/2/2 10/11/3 9/10/4
f 2/2/2 3/3/5 11/12/6 10/11/3
f 3/3/5 4/4/7 12/13/8 11/12/6
f 4/4/7 5/5/9 13/14/10 12/13/8
f 5/5/9 6/6/11 14/15/12 13/14/10
f 6/6/11 7/7/13 15/16/14 14/15/12
f 7/7/13 8/8/15 16/17/16 15/16/14
f 8/8/15 1/9/1 9/18/4 16/17/16
f 9/10/4 10/11/3 18/20/17 17/19/18
f 10/11/3 11/12/6 19/21/19 18/20/17
f 11/12/6 12/13/8 20/22/20 19/21/19
f 12/13/8 13/14/10 21/23/21 20/22/20
f 13/14/10 14/15/12 22/24/22 21/23/21
f 14/15/12 15/16/14 23/25/23 22/24/22
f 15/16/14 16/17/16 24/26/24 23/25/23
f 16/17/16 9/18/4 17/27/18 24/26/24
f 17/19/18 18/20/17 26/29/25 25/28/26
f 18/20/17 19/21/19 27/30/27 26/29/25
f 19/21/19 20/22/20 28/31/28 27/30/27
f 20/22/20 21/23/21 29/32/29 28/31/28
f 21/23/21 22/24/22 30/33/30 29/32/29
f 22/24/22 23/25/23 31/34/31 30/33/30
f 23/25/23 24/26/24 32/35/32 31/34/31
f 24/26/24 17/27/18 25/36/26 32/35/32
f 25/28/26 26/29/25 34/38/33 33/37/34
f 26/29/25 27/30/27 35/39/35 34/38/33
f 27/30/27 28/31/28 36/40/36 35/39/35
f 28/31/28 29/32/29 37/41/37 36/40/36
f 29/32/29 30/33/30 38/42/38 37/41/37
f 30/33/30 31/34/31 39/43/39 38/42/38
f 31/34/31 32/35/32 40/44/40 39/43/39
f 32/35/32 25/36/26 33/45/34 40/44/40
f 33/37/34 34/38/33 42/47/41 41/46/42
f 34/38/33 35/39/35 43/48/43 42/47/41
f 35/39/35 36/40/36 44/49/44 43/48/43
f 36/40/36 37/41/37 45/50/45 44/49/44
f 37/41/37 38/42/38 46/51/46 45/50/45
f 38/42/38 39/43/39 47/52/47 46/51/46
f 39/43/39 40/44/40 48/53/48 47/52/47
f 40/44/40 33/45/34 41/54/42 48/53/48
f 41/46/42 42/47/41 50/56/49 49/55/50
f 42/47/41 43/48/43 51/57/51 50/56/49
f 43/48/43 44/49/44 52/58/52 51/57/51
f 44/49/44 45/50/45 53/59/53 52/58/52
f 45/50/45 46/51/46 54/60/54 53/59/53
f 46/51/46 47/52/47 55/61/55 54/60/54
f 47/52/47 48/53/48 56/62/56 55/61/55
f 48/53/48 41/54/42 49/63/50 56/62/56
f 2/2/2 1/1/1 57/64/57
f 3/3/5 2/2/2 57/65/57
f 4/4/7 3/3/5 57/66/57
f 5/5/9 4/4/7 57/67/57
f 6/6/11 5/5/9 57/68/57
f 7/7/13 6/6/11 57/69/57
f 8/8/15 7/7/13 57/70/57
f 1/9/1 8/8/15 57/71/57
f 49/55/50 50/56/49 58/72/58
f 50/56/49 51/57/51 58/73/58
f 51/57/51 52/58/52 58/74/58
f 52/58/52 53/59/53 58/75/58
f 53/59/53 54/60/54 58/76/58
f 54/60/54 55/61/55 58/77/58
f 55/61/55 56/62/56 58/78/58
f 56/62/56 49/63/50 58/79/58
s 2
f 59/80/59 60/81/60 66/82/61 65/83/62
f 60/81/60 61/84/63 67/85/64 66/82/61
f 61/84/63 62/86/65 68/87/66 67/85/64
f 62/86/65 63/88/67 69/89/68 68/87/66
f 63/88/67 64/90/69 70/91/70 69/89/68
f 64/90/69 59/92/59 65/93/62 70/91/70
s 3
f 60/94/71 59/95/72 71/96/73
f 61/97/74 60/94/71 71/96/73
f 62/98/75 61/97/74 71/96/73
f 63/99/76 62/98/75 71/96/73
f 64/100/77 63/99/76 71/96/73
f 59/95/72 64/100/77 71/96/73
s 4
f 72/101/78 73/102/79 74/103/80
f 73/102/79 75/104/81 74/103/80
f 75/104/81 76/105/82 74/103/80
f 76/105/82 77/106/83 74/103/80
f 77/106/83 78/107/84 74/103/80
f 78/107/84 72/101/78 74/103/80
s 2
f 65/108/62 66/109/61 73/102/85 72/101/86
f 66/109/61 67/110/64 75/104/87 73/102/85
f 67/110/64 68/111/66 76/105/88 75/104/87
f 68/111/66 69/112/68 77/106/89 76/105/88
f 69/112/68 70/113/70 78/107/90 77/106/89
f 70/113/70 65/108/62 72/101/86 78/107/90
