# This file uses centimeters as units for non-parametric coordinates.

v -0.095432 -0.296743 0.131474
v -0.055970 -0.296743 0.155162
v -0.095432 0.307461 0.131474
v -0.055970 0.323315 0.155162
v -0.071744 0.307461 0.092012
v -0.032282 0.323315 0.115700
v -0.071744 -0.296743 0.092012
v -0.032282 -0.296743 0.115700
v -0.058793 -0.345527 0.074295
v -0.014319 -0.342421 0.062860
v -0.101989 0.259342 0.074295
v -0.057515 0.276130 0.062860
v -0.113396 0.258545 0.029712
v -0.068921 0.275333 0.018278
v -0.070199 -0.346324 0.029712
v -0.025725 -0.343218 0.018278
v 0.074647 -0.170138 -0.038027
v 0.104230 -0.173149 -0.073157
v 0.004653 0.416423 -0.148907
v 0.034237 0.432885 -0.184037
v -0.030221 0.407168 -0.177481
v -0.000638 0.423630 -0.212612
v 0.039773 -0.179394 -0.066601
v 0.069356 -0.182405 -0.101731
v -0.095270 -0.117299 0.000697
v -0.053423 -0.128843 -0.014598
v 0.088814 0.461799 0.059664
v 0.130661 0.460315 0.044369
v 0.075379 0.470320 0.016475
v 0.117226 0.468836 0.001180
v -0.108705 -0.108778 -0.042491
v -0.066858 -0.120322 -0.057786
v -0.018033 -0.178007 0.125264
v 0.027744 -0.182776 0.125462
v 0.046265 0.438177 0.099682
v 0.092042 0.433408 0.099879
v 0.046265 0.436267 0.053696
v 0.092042 0.431499 0.053894
v -0.018033 -0.179917 0.079278
v 0.027744 -0.184685 0.079476
v -0.011919 -0.470320 0.326553
v -0.011919 0.182787 0.326553
v -0.011919 0.182787 -0.326553
v -0.011919 -0.470320 -0.326553
v -0.130661 -0.424810 -0.163277
v 0.106824 -0.424810 -0.163277
v 0.106824 0.326123 -0.163277
v -0.130661 0.152713 -0.163277
v -0.130661 0.152713 0.163276
v 0.106824 0.326123 0.163277
v 0.106824 -0.424810 0.163276
v -0.130661 -0.424810 0.163276
v -0.011919 -0.387457 0.163276
v -0.011919 -0.387457 -0.163277
v 0.087571 0.311870 -0.163277
v 0.087571 0.311870 0.163276
v -0.109590 0.152713 -0.163277
v -0.109590 0.152713 0.163276
v -0.012539 0.182787 0.294453
v -0.011686 0.182787 -0.295606
v 0.087571 -0.010397 -0.163277
v -0.011686 -0.139480 -0.295606
v -0.109590 -0.139480 -0.163277
v 0.087571 -0.010397 0.163276
v -0.109590 -0.139480 0.163276
v -0.012539 -0.139480 0.294453
v -0.130661 -0.410301 -0.000000
v -0.011919 -0.372949 -0.000000
v 0.106824 -0.410301 -0.000000
v 0.106824 0.359856 -0.000000
v 0.087571 0.345552 -0.000000
v 0.087571 -0.010397 -0.000000
v -0.109590 -0.139480 -0.000000
v -0.109590 0.138147 -0.000000
v -0.130661 0.138147 -0.000000
v -0.034931 -0.234752 0.098999
v 0.011094 -0.234752 0.098999
v -0.034931 0.343491 0.322846
v 0.011094 0.343491 0.322846
v -0.034931 0.340938 0.279924
v 0.011094 0.340938 0.279924
v -0.034931 -0.218136 0.056078
v 0.011094 -0.218136 0.056078
v -0.113820 0.123837 -0.148153
v -0.070188 0.116016 -0.135767
v -0.078369 0.320762 -0.136319
v -0.034737 0.332541 -0.123934
v -0.065743 0.321114 -0.180578
v -0.022111 0.332892 -0.168192
v -0.101194 0.124188 -0.192411
v -0.057562 0.116368 -0.180026
v -0.067015 0.118663 -0.205675
v -0.025411 0.117189 -0.186046
v -0.032725 0.328094 -0.262621
v 0.008878 0.326619 -0.242991
v -0.014398 0.314248 -0.302505
v 0.027206 0.312774 -0.282876
v -0.048688 0.104818 -0.245560
v -0.007084 0.103343 -0.225930
v -0.111260 0.035009 -0.008021
v -0.066540 0.031257 0.002193
v -0.077698 0.240000 -0.079660
v -0.032977 0.236247 -0.069445
v -0.069391 0.223859 -0.121955
v -0.024671 0.220107 -0.111740
v -0.102954 0.018868 -0.050316
v -0.058233 0.015116 -0.040101
v -0.027876 -0.207231 -0.039454
v 0.017109 -0.207231 -0.029724
v -0.027876 0.412827 -0.039454
v 0.017109 0.412827 -0.029724
v -0.018147 0.412827 -0.084439
v 0.026838 0.412827 -0.074710
v -0.018147 -0.207231 -0.084439
v 0.026838 -0.207231 -0.074710
v -0.010663 -0.183063 0.180438
v 0.032321 -0.184701 0.196811
v -0.010663 0.433912 0.242189
v 0.032321 0.432274 0.258561
v 0.005791 0.438193 0.199419
v 0.048775 0.436554 0.215791
v 0.005791 -0.178782 0.137668
v 0.048775 -0.180421 0.154041
vt 0.375000 0.000000
vt 0.625000 0.000000
vt 0.375000 0.250000
vt 0.625000 0.250000
vt 0.375000 0.500000
vt 0.625000 0.500000
vt 0.375000 0.750000
vt 0.625000 0.750000
vt 0.375000 1.000000
vt 0.625000 1.000000
vt 0.875000 0.000000
vt 0.875000 0.250000
vt 0.125000 0.000000
vt 0.125000 0.250000
vt 0.375000 0.000000
vt 0.625000 0.000000
vt 0.625000 0.250000
vt 0.375000 0.250000
vt 0.625000 0.500000
vt 0.375000 0.500000
vt 0.625000 0.750000
vt 0.375000 0.750000
vt 0.625000 1.000000
vt 0.375000 1.000000
vt 0.875000 0.000000
vt 0.875000 0.250000
vt 0.125000 0.000000
vt 0.125000 0.250000
vt 0.375000 0.000000
vt 0.625000 0.000000
vt 0.625000 0.250000
vt 0.375000 0.250000
vt 0.625000 0.500000
vt 0.375000 0.500000
vt 0.625000 0.750000
vt 0.375000 0.750000
vt 0.625000 1.000000
vt 0.375000 1.000000
vt 0.875000 0.000000
vt 0.875000 0.250000
vt 0.125000 0.000000
vt 0.125000 0.250000
vt 0.375000 0.000000
vt 0.625000 0.000000
vt 0.625000 0.250000
vt 0.375000 0.250000
vt 0.625000 0.500000
vt 0.375000 0.500000
vt 0.625000 0.750000
vt 0.375000 0.750000
vt 0.625000 1.000000
vt 0.375000 1.000000
vt 0.875000 0.000000
vt 0.875000 0.250000
vt 0.125000 0.000000
vt 0.125000 0.250000
vt 0.375000 0.000000
vt 0.625000 0.000000
vt 0.625000 0.250000
vt 0.375000 0.250000
vt 0.625000 0.500000
vt 0.375000 0.500000
vt 0.625000 0.750000
vt 0.375000 0.750000
vt 0.625000 1.000000
vt 0.375000 1.000000
vt 0.875000 0.000000
vt 0.875000 0.250000
vt 0.125000 0.000000
vt 0.125000 0.250000
vt 0.625000 0.375000
vt 0.604732 0.375000
vt 0.604732 0.312500
vt 0.625000 0.312500
vt 0.500000 0.937500
vt 0.500000 0.875000
vt 0.625000 0.875000
vt 0.625000 0.937500
vt 0.687500 0.000000
vt 0.750000 0.000000
vt 0.750000 0.250000
vt 0.687500 0.250000
vt 0.250000 0.250000
vt 0.250000 0.000000
vt 0.312500 0.000000
vt 0.312500 0.250000
vt 0.500000 0.750000
vt 0.625000 0.812500
vt 0.500000 0.812500
vt 0.812500 0.250000
vt 0.812500 0.000000
vt 0.875000 0.000000
vt 0.875000 0.250000
vt 0.604732 0.437500
vt 0.500244 0.488154
vt 0.397181 0.437500
vt 0.125000 0.000000
vt 0.187500 0.000000
vt 0.187500 0.250000
vt 0.125000 0.250000
vt 0.500000 0.250000
vt 0.499346 0.262288
vt 0.500000 0.000000
vt 0.500000 1.000000
vt 0.375000 0.937500
vt 0.375000 0.875000
vt 0.375000 0.812500
vt 0.604732 0.312500
vt 0.604732 0.375000
vt 0.397181 0.375000
vt 0.397181 0.312500
vt 0.375000 0.437500
vt 0.397181 0.437500
vt 0.500244 0.488154
vt 0.500000 0.500000
vt 0.397181 0.312500
vt 0.397181 0.375000
vt 0.375000 0.375000
vt 0.375000 0.312500
vt 0.499346 0.262288
vt 0.604732 0.437500
vt 0.625000 0.437500
vt 0.375000 0.000000
vt 0.625000 0.000000
vt 0.625000 0.250000
vt 0.375000 0.250000
vt 0.625000 0.500000
vt 0.375000 0.500000
vt 0.625000 0.750000
vt 0.375000 0.750000
vt 0.625000 1.000000
vt 0.375000 1.000000
vt 0.875000 0.000000
vt 0.875000 0.250000
vt 0.125000 0.000000
vt 0.125000 0.250000
vt 0.375000 0.000000
vt 0.625000 0.000000
vt 0.625000 0.250000
vt 0.375000 0.250000
vt 0.625000 0.500000
vt 0.375000 0.500000
vt 0.625000 0.750000
vt 0.375000 0.750000
vt 0.625000 1.000000
vt 0.375000 1.000000
vt 0.875000 0.000000
vt 0.875000 0.250000
vt 0.125000 0.000000
vt 0.125000 0.250000
vt 0.375000 0.000000
vt 0.625000 0.000000
vt 0.625000 0.250000
vt 0.375000 0.250000
vt 0.625000 0.500000
vt 0.375000 0.500000
vt 0.625000 0.750000
vt 0.375000 0.750000
vt 0.625000 1.000000
vt 0.375000 1.000000
vt 0.875000 0.000000
vt 0.875000 0.250000
vt 0.125000 0.000000
vt 0.125000 0.250000
vt 0.375000 0.000000
vt 0.625000 0.000000
vt 0.625000 0.250000
vt 0.375000 0.250000
vt 0.625000 0.500000
vt 0.375000 0.500000
vt 0.625000 0.750000
vt 0.375000 0.750000
vt 0.625000 1.000000
vt 0.375000 1.000000
vt 0.875000 0.000000
vt 0.875000 0.250000
vt 0.125000 0.000000
vt 0.125000 0.250000
vt 0.375000 0.000000
vt 0.625000 0.000000
vt 0.625000 0.250000
vt 0.375000 0.250000
vt 0.625000 0.500000
vt 0.375000 0.500000
vt 0.625000 0.750000
vt 0.375000 0.750000
vt 0.625000 1.000000
vt 0.375000 1.000000
vt 0.875000 0.000000
vt 0.875000 0.250000
vt 0.125000 0.000000
vt 0.125000 0.250000
vt 0.375000 0.000000
vt 0.625000 0.000000
vt 0.625000 0.250000
vt 0.375000 0.250000
vt 0.625000 0.500000
vt 0.375000 0.500000
vt 0.625000 0.750000
vt 0.375000 0.750000
vt 0.625000 1.000000
vt 0.375000 1.000000
vt 0.875000 0.000000
vt 0.875000 0.250000
vt 0.125000 0.000000
vt 0.125000 0.250000
vn -0.514664 0.000000 0.857392
vn -0.514664 0.000000 0.857392
vn -0.514664 0.000000 0.857392
vn -0.514664 0.000000 0.857392
vn -0.279234 0.945480 -0.167615
vn -0.279234 0.945480 -0.167615
vn -0.279234 0.945480 -0.167615
vn -0.279234 0.945480 -0.167615
vn 0.514664 0.000000 -0.857392
vn 0.514664 0.000000 -0.857392
vn 0.514664 0.000000 -0.857392
vn 0.514664 0.000000 -0.857392
vn 0.000000 -1.000000 0.000000
vn 0.000000 -1.000000 0.000000
vn 0.000000 -1.000000 0.000000
vn 0.000000 -1.000000 0.000000
vn 0.857392 0.000000 0.514664
vn 0.857392 0.000000 0.514664
vn 0.857392 0.000000 0.514664
vn 0.857392 0.000000 0.514664
vn -0.857392 0.000000 -0.514664
vn -0.857392 0.000000 -0.514664
vn -0.857392 0.000000 -0.514664
vn -0.857392 0.000000 -0.514664
vn 0.245325 0.017324 0.969286
vn 0.245325 0.017324 0.969286
vn 0.245325 0.017324 0.969286
vn 0.245325 0.017324 0.969286
vn -0.336648 0.939073 0.069353
vn -0.336648 0.939073 0.069353
vn -0.336648 0.939073 0.069353
vn -0.336648 0.939073 0.069353
vn -0.245325 -0.017324 -0.969286
vn -0.245325 -0.017324 -0.969286
vn -0.245325 -0.017324 -0.969286
vn -0.245325 -0.017324 -0.969286
vn 0.069665 -0.997570 0.000000
vn 0.069665 -0.997570 0.000000
vn 0.069665 -0.997570 0.000000
vn 0.069665 -0.997570 0.000000
vn 0.966296 0.067481 -0.248430
vn 0.966296 0.067481 -0.248430
vn 0.966296 0.067481 -0.248430
vn 0.966296 0.067481 -0.248430
vn -0.966189 -0.069000 0.248430
vn -0.966189 -0.069000 0.248430
vn -0.966189 -0.069000 0.248430
vn -0.966189 -0.069000 0.248430
vn 0.728475 0.206945 0.653068
vn 0.728475 0.206945 0.653068
vn 0.728475 0.206945 0.653068
vn 0.728475 0.206945 0.653068
vn -0.355430 0.925024 0.134162
vn -0.355430 0.925024 0.134162
vn -0.355430 0.925024 0.134162
vn -0.355430 0.925024 0.134162
vn -0.728475 -0.206945 -0.653068
vn -0.728475 -0.206945 -0.653068
vn -0.728475 -0.206945 -0.653068
vn -0.728475 -0.206945 -0.653068
vn 0.112883 -0.977384 0.178824
vn 0.112883 -0.977384 0.178824
vn 0.112883 -0.977384 0.178824
vn 0.112883 -0.977384 0.178824
vn 0.642753 -0.065416 -0.763275
vn 0.642753 -0.065416 -0.763275
vn 0.642753 -0.065416 -0.763275
vn 0.642753 -0.065416 -0.763275
vn -0.642991 0.067487 0.762894
vn -0.642991 0.067487 0.762894
vn -0.642991 0.067487 0.762894
vn -0.642991 0.067487 0.762894
vn 0.310442 -0.191820 0.931037
vn 0.310442 -0.191820 0.931037
vn 0.310442 -0.191820 0.931037
vn 0.310442 -0.191820 0.931037
vn 0.094833 0.981857 0.164207
vn 0.094833 0.981857 0.164207
vn 0.094833 0.981857 0.164207
vn 0.094833 0.981857 0.164207
vn -0.310442 0.191820 -0.931037
vn -0.310442 0.191820 -0.931037
vn -0.310442 0.191820 -0.931037
vn -0.310442 0.191820 -0.931037
vn -0.296881 -0.950167 -0.095097
vn -0.296881 -0.950168 -0.095097
vn -0.296881 -0.950168 -0.095097
vn -0.296881 -0.950168 -0.095097
vn 0.909203 -0.250822 -0.332321
vn 0.909203 -0.250822 -0.332321
vn 0.909203 -0.250822 -0.332321
vn 0.909203 -0.250822 -0.332321
vn -0.907969 0.254748 0.332711
vn -0.907969 0.254748 0.332711
vn -0.907969 0.254748 0.332711
vn -0.907969 0.254748 0.332711
vn 0.000000 0.041482 0.999139
vn 0.000000 0.041482 0.999139
vn 0.000000 0.041482 0.999139
vn 0.000000 0.041482 0.999139
vn 0.103695 0.993753 -0.041260
vn 0.103695 0.993753 -0.041260
vn 0.103695 0.993753 -0.041260
vn 0.103695 0.993753 -0.041260
vn 0.000000 -0.041482 -0.999139
vn 0.000000 -0.041482 -0.999139
vn 0.000000 -0.041482 -0.999139
vn 0.000000 -0.041482 -0.999139
vn -0.103695 -0.993753 0.041257
vn -0.103695 -0.993753 0.041257
vn -0.103695 -0.993753 0.041257
vn -0.103695 -0.993753 0.041257
vn 0.994609 -0.103607 0.004302
vn 0.994609 -0.103607 0.004302
vn 0.994609 -0.103607 0.004302
vn 0.994609 -0.103607 0.004302
vn -0.994609 0.103607 -0.004301
vn -0.994609 0.103607 -0.004301
vn -0.994609 0.103607 -0.004301
vn -0.994609 0.103607 -0.004301
vn -0.595689 0.803215 -0.000000
vn -0.595689 0.803215 -0.000000
vn -0.665676 0.733309 0.138324
vn -0.628690 0.762904 0.150753
vn -0.293754 -0.933831 -0.204127
vn -0.300072 -0.953917 0.000000
vn -0.300072 -0.953917 0.000000
vn -0.294936 -0.937592 -0.184212
vn 0.933660 -0.000000 0.358161
vn 1.000000 0.000000 0.000000
vn 1.000000 0.000000 0.000000
vn 0.972145 -0.000000 0.234380
vn -1.000000 0.000000 0.000000
vn -1.000000 0.000000 0.000000
vn -0.923942 0.000000 0.382531
vn -0.926373 0.000000 0.376608
vn -0.270087 -0.858597 0.435734
vn -0.294936 -0.937592 0.184212
vn -0.293754 -0.933831 0.204127
vn 0.972145 -0.000000 -0.234380
vn 0.933660 -0.000000 -0.358161
vn 0.808745 -0.000000 -0.588159
vn 0.808745 -0.000000 -0.588159
vn -0.546582 0.834844 -0.065443
vn -0.507653 0.775385 -0.375587
vn -0.545724 0.833534 -0.086054
vn -0.808745 0.000000 -0.588159
vn -0.923942 0.000000 -0.382532
vn -0.926373 0.000000 -0.376608
vn -0.808745 0.000000 -0.588159
vn -0.540923 0.839402 0.052971
vn -0.482972 0.875143 0.029378
vn 0.808746 -0.000000 0.588159
vn 0.808746 -0.000000 0.588159
vn -0.270087 -0.858597 -0.435734
vn -0.808746 0.000000 0.588158
vn -0.808746 0.000000 0.588158
vn 0.294936 -0.937592 -0.184212
vn 0.293754 -0.933831 -0.204127
vn 0.270087 -0.858597 -0.435734
vn 0.300072 -0.953917 0.000000
vn 0.300072 -0.953917 0.000000
vn 0.270087 -0.858597 0.435734
vn 0.293754 -0.933831 0.204127
vn 0.294936 -0.937592 0.184212
vn -0.546616 0.834897 0.064482
vn -0.547756 0.836638 0.000000
vn -0.547756 0.836638 0.000000
vn -0.545752 0.833577 0.085468
vn -0.051765 0.994405 0.092085
vn -0.080847 0.992303 0.093796
vn -0.482822 0.875442 -0.022013
vn -0.532066 0.845702 -0.041150
vn -0.084046 0.992227 -0.091774
vn 0.000000 1.000000 -0.000000
vn 0.000000 1.000000 -0.000000
vn -0.053774 0.994417 -0.090795
vn -0.507653 0.775385 0.375587
vn -0.669347 0.730891 -0.133319
vn -0.630270 0.762072 -0.148342
vn -0.978239 0.000000 0.207479
vn -0.799970 0.000000 0.600040
vn -0.799970 0.000000 0.600040
vn -0.931001 0.000000 0.365016
vn 0.803899 0.000000 0.594765
vn 0.936043 0.000000 0.351886
vn 0.945310 0.000000 0.326172
vn 0.803900 0.000000 0.594765
vn -0.977811 0.000000 -0.209490
vn -1.000000 0.000000 0.000000
vn -1.000000 0.000000 0.000000
vn -0.929324 0.000000 -0.369265
vn 1.000000 0.000000 -0.000000
vn 1.000000 0.000000 -0.000000
vn 0.936491 0.000000 -0.350693
vn 0.945779 0.000000 -0.324810
vn 0.803900 0.000000 -0.594765
vn 0.803900 0.000000 -0.594765
vn -0.794945 0.000000 -0.606682
vn -0.794945 0.000000 -0.606682
vn 0.000000 -0.361009 0.932562
vn 0.000000 -0.361009 0.932562
vn 0.000000 -0.361009 0.932562
vn 0.000000 -0.361009 0.932562
vn 0.000000 0.998236 -0.059378
vn 0.000000 0.998236 -0.059378
vn 0.000000 0.998236 -0.059378
vn 0.000000 0.998236 -0.059378
vn 0.000000 0.371701 -0.928352
vn 0.000000 0.371701 -0.928352
vn 0.000000 0.371701 -0.928352
vn 0.000000 0.371701 -0.928352
vn 0.000000 -0.932561 -0.361011
vn 0.000000 -0.932561 -0.361011
vn 0.000000 -0.932561 -0.361011
vn 0.000000 -0.932561 -0.361011
vn 1.000000 0.000000 0.000000
vn 1.000000 0.000000 0.000000
vn 1.000000 0.000000 0.000000
vn 1.000000 0.000000 0.000000
vn -1.000000 0.000000 0.000000
vn -1.000000 0.000000 0.000000
vn -1.000000 0.000000 0.000000
vn -1.000000 0.000000 0.000000
vn -0.272720 -0.008303 0.962058
vn -0.272720 -0.008303 0.962058
vn -0.272720 -0.008303 0.962058
vn -0.272720 -0.008303 0.962058
vn -0.243719 0.967872 -0.061842
vn -0.243719 0.967872 -0.061842
vn -0.243719 0.967872 -0.061842
vn -0.243719 0.967872 -0.061842
vn 0.272720 0.008303 -0.962058
vn 0.272720 0.008303 -0.962058
vn 0.272720 0.008303 -0.962058
vn 0.272720 0.008303 -0.962058
vn -0.161341 -0.985428 -0.053855
vn -0.161341 -0.985428 -0.053855
vn -0.161341 -0.985428 -0.053855
vn -0.161341 -0.985428 -0.053855
vn 0.948002 -0.169922 0.269107
vn 0.948002 -0.169922 0.269107
vn 0.948002 -0.169922 0.269107
vn 0.948002 -0.169922 0.269107
vn -0.945191 0.186271 -0.268174
vn -0.945191 0.186271 -0.268174
vn -0.945191 0.186271 -0.268174
vn -0.945191 0.186271 -0.268174
vn -0.398201 0.300822 0.866569
vn -0.398201 0.300822 0.866569
vn -0.398201 0.300822 0.866569
vn -0.398201 0.300822 0.866569
vn 0.156055 0.953142 -0.259166
vn 0.156055 0.953142 -0.259166
vn 0.156055 0.953142 -0.259166
vn 0.156055 0.953142 -0.259166
vn 0.398202 -0.300822 -0.866569
vn 0.398202 -0.300822 -0.866569
vn 0.398202 -0.300822 -0.866569
vn 0.398202 -0.300822 -0.866569
vn -0.156054 -0.953143 0.259163
vn -0.156054 -0.953143 0.259163
vn -0.156054 -0.953143 0.259163
vn -0.156054 -0.953143 0.259163
vn 0.903926 -0.032033 0.426487
vn 0.903926 -0.032033 0.426487
vn 0.903926 -0.032033 0.426487
vn 0.903926 -0.032033 0.426487
vn -0.903926 0.032033 -0.426487
vn -0.903926 0.032033 -0.426487
vn -0.903926 0.032033 -0.426487
vn -0.903926 0.032033 -0.426487
vn -0.180478 0.350692 0.918936
vn -0.180478 0.350692 0.918936
vn -0.180478 0.350692 0.918936
vn -0.180478 0.350692 0.918936
vn 0.152746 0.932937 -0.326034
vn 0.152746 0.932937 -0.326034
vn 0.152746 0.932937 -0.326034
vn 0.152746 0.932937 -0.326034
vn 0.180478 -0.350692 -0.918936
vn 0.180478 -0.350692 -0.918936
vn 0.180478 -0.350692 -0.918936
vn 0.180478 -0.350692 -0.918936
vn -0.152749 -0.932935 0.326036
vn -0.152749 -0.932935 0.326036
vn -0.152749 -0.932935 0.326036
vn -0.152749 -0.932935 0.326036
vn 0.971646 -0.081523 0.221942
vn 0.971646 -0.081523 0.221942
vn 0.971646 -0.081523 0.221942
vn 0.971646 -0.081523 0.221942
vn -0.971646 0.081523 -0.221942
vn -0.971646 0.081523 -0.221942
vn -0.971646 0.081523 -0.221942
vn -0.971646 0.081523 -0.221942
vn -0.211388 0.000000 0.977402
vn -0.211388 0.000000 0.977402
vn -0.211388 0.000000 0.977402
vn -0.211388 0.000000 0.977402
vn 0.000000 1.000000 -0.000000
vn 0.000000 1.000000 -0.000000
vn 0.000000 1.000000 -0.000000
vn 0.000000 1.000000 -0.000000
vn 0.211388 0.000000 -0.977402
vn 0.211388 0.000000 -0.977402
vn 0.211388 0.000000 -0.977402
vn 0.211388 0.000000 -0.977402
vn 0.000000 -1.000000 -0.000000
vn 0.000000 -1.000000 -0.000000
vn 0.000000 -1.000000 -0.000000
vn 0.000000 -1.000000 -0.000000
vn 0.977402 0.000000 0.211388
vn 0.977402 0.000000 0.211388
vn 0.977402 0.000000 0.211388
vn 0.977402 0.000000 0.211388
vn -0.977402 0.000000 -0.211388
vn -0.977402 0.000000 -0.211388
vn -0.977402 0.000000 -0.211388
vn -0.977402 0.000000 -0.211388
vn -0.357499 -0.093007 0.929271
vn -0.357499 -0.093007 0.929271
vn -0.357499 -0.093007 0.929271
vn -0.357499 -0.093007 0.929271
vn 0.000003 0.995028 0.099591
vn 0.000003 0.995028 0.099591
vn 0.000003 0.995028 0.099591
vn 0.000003 0.995028 0.099591
vn 0.357500 0.093007 -0.929270
vn 0.357500 0.093007 -0.929270
vn 0.357500 0.093007 -0.929270
vn 0.357500 0.093007 -0.929270
vn -0.000002 -0.995029 -0.099587
vn -0.000002 -0.995029 -0.099587
vn -0.000002 -0.995029 -0.099587
vn -0.000002 -0.995029 -0.099587
vn 0.933914 -0.035603 0.355722
vn 0.933914 -0.035603 0.355722
vn 0.933914 -0.035603 0.355722
vn 0.933914 -0.035603 0.355722
vn -0.933914 0.035603 -0.355722
vn -0.933914 0.035603 -0.355721
vn -0.933914 0.035603 -0.355722
vn -0.933914 0.035603 -0.355721
s off
f 1/1/1 2/2/2 4/4/3 3/3/4
f 3/3/5 4/4/6 6/6/7 5/5/8
f 5/5/9 6/6/10 8/8/11 7/7/12
f 7/7/13 8/8/14 2/10/15 1/9/16
f 2/2/17 8/11/18 6/12/19 4/4/20
f 7/13/21 1/1/22 3/3/23 5/14/24
f 9/15/25 10/16/26 12/17/27 11/18/28
f 11/18/29 12/17/30 14/19/31 13/20/32
f 13/20/33 14/19/34 16/21/35 15/22/36
f 15/22/37 16/21/38 10/23/39 9/24/40
f 10/16/41 16/25/42 14/26/43 12/17/44
f 15/27/45 9/15/46 11/18/47 13/28/48
f 17/29/49 18/30/50 20/31/51 19/32/52
f 19/32/53 20/31/54 22/33/55 21/34/56
f 21/34/57 22/33/58 24/35/59 23/36/60
f 23/36/61 24/35/62 18/37/63 17/38/64
f 18/30/65 24/39/66 22/40/67 20/31/68
f 23/41/69 17/29/70 19/32/71 21/42/72
f 25/43/73 26/44/74 28/45/75 27/46/76
f 27/46/77 28/45/78 30/47/79 29/48/80
f 29/48/81 30/47/82 32/49/83 31/50/84
f 31/50/85 32/49/86 26/51/87 25/52/88
f 26/44/89 32/53/90 30/54/91 28/45/92
f 31/55/93 25/43/94 27/46/95 29/56/96
f 33/57/97 34/58/98 36/59/99 35/60/100
f 35/60/101 36/59/102 38/61/103 37/62/104
f 37/62/105 38/61/106 40/63/107 39/64/108
f 39/64/109 40/63/110 34/65/111 33/66/112
f 34/58/113 40/67/114 38/68/115 36/59/116
f 39/69/117 33/57/118 35/60/119 37/70/120
s 1
f 70/71/121 71/72/122 56/73/123 50/74/124
s 2
f 53/75/125 68/76/126 69/77/127 51/78/128
s 3
f 51/79/129 69/80/130 70/81/131 50/82/132
s 4
f 75/83/133 67/84/134 52/85/135 49/86/136
s 2
f 44/87/137 46/88/138 54/89/139
s 3
f 47/90/140 46/91/141 44/92/142 43/93/143
s 5
f 61/94/144 62/95/145 63/96/146
s 4
f 44/97/147 45/98/148 48/99/149 43/100/150
s 1
f 42/101/151 50/74/124 56/73/123 59/102/152
s 3
f 41/103/153 51/79/129 50/82/132 42/101/154
s 2
f 41/104/155 53/75/125 51/78/128
s 4
f 49/86/136 52/85/135 41/103/156 42/101/157
s 6
f 52/105/158 53/75/159 41/104/160
f 52/105/158 67/106/161 68/76/162 53/75/159
f 44/87/163 54/89/164 45/107/165
s 5
f 64/108/166 72/109/167 73/110/168 65/111/169
s 1
f 48/112/170 57/113/171 60/114/172 43/115/173
f 58/116/174 74/117/175 75/118/176 49/119/177
s 5
f 65/111/169 66/120/178 64/108/166
s 1
f 60/114/172 55/121/179 47/122/180 43/115/173
f 42/101/151 59/102/152 58/116/174 49/119/177
s 8
f 55/121/181 60/114/182 62/95/183 61/94/184
s 9
f 60/114/185 57/113/186 63/96/187 62/95/188
s 8
f 56/73/189 71/72/190 72/109/191 64/108/192
s 9
f 73/110/193 74/117/194 58/116/195 65/111/196
f 58/116/195 59/102/197 66/120/198 65/111/196
s 8
f 59/102/199 56/73/189 64/108/192 66/120/200
s 6
f 68/76/162 67/106/161 45/107/165 54/89/164
s 2
f 69/77/127 68/76/126 54/89/139 46/88/138
s 3
f 70/81/131 69/80/130 46/91/141 47/90/140
s 1
f 47/122/180 55/121/179 71/72/122 70/71/121
s 8
f 72/109/191 71/72/190 55/121/181 61/94/184
s 5
f 73/110/168 72/109/167 61/94/144 63/96/146
s 9
f 57/113/186 74/117/194 73/110/193 63/96/187
s 1
f 75/118/176 74/117/175 57/113/171 48/112/170
s 4
f 48/99/149 45/98/148 67/84/134 75/83/133
s off
f 76/123/201 77/124/202 79/125/203 78/126/204
f 78/126/205 79/125/206 81/127/207 80/128/208
f 80/128/209 81/127/210 83/129/211 82/130/212
f 82/130/213 83/129/214 77/131/215 76/132/216
f 77/124/217 83/133/218 81/134/219 79/125/220
f 82/135/221 76/123/222 78/126/223 80/136/224
f 84/137/225 85/138/226 87/139/227 86/140/228
f 86/140/229 87/139/230 89/141/231 88/142/232
f 88/142/233 89/141/234 91/143/235 90/144/236
f 90/144/237 91/143/238 85/145/239 84/146/240
f 85/138/241 91/147/242 89/148/243 87/139/244
f 90/149/245 84/137/246 86/140/247 88/150/248
f 92/151/249 93/152/250 95/153/251 94/154/252
f 94/154/253 95/153/254 97/155/255 96/156/256
f 96/156/257 97/155/258 99/157/259 98/158/260
f 98/158/261 99/157/262 93/159/263 92/160/264
f 93/152/265 99/161/266 97/162/267 95/153/268
f 98/163/269 92/151/270 94/154/271 96/164/272
f 100/165/273 101/166/274 103/167/275 102/168/276
f 102/168/277 103/167/278 105/169/279 104/170/280
f 104/170/281 105/169/282 107/171/283 106/172/284
f 106/172/285 107/171/286 101/173/287 100/174/288
f 101/166/289 107/175/290 105/176/291 103/167/292
f 106/177/293 100/165/294 102/168/295 104/178/296
f 108/179/297 109/180/298 111/181/299 110/182/300
f 110/182/301 111/181/302 113/183/303 112/184/304
f 112/184/305 113/183/306 115/185/307 114/186/308
f 114/186/309 115/185/310 109/187/311 108/188/312
f 109/180/313 115/189/314 113/190/315 111/181/316
f 114/191/317 108/179/318 110/182/319 112/192/320
f 116/193/321 117/194/322 119/195/323 118/196/324
f 118/196/325 119/195/326 121/197/327 120/198/328
f 120/198/329 121/197/330 123/199/331 122/200/332
f 122/200/333 123/199/334 117/201/335 116/202/336
f 117/194/337 123/203/338 121/204/339 119/195/340
f 122/205/341 116/193/342 118/196/343 120/206/344
