# This file uses centimeters as units for non-parametric coordinates.

v -0.500000 0.000000 2.500000
v 0.500000 0.000000 2.500000
v -0.500000 0.500000 2.500000
v 0.500000 0.500000 2.500000
v -0.500000 0.300020 -2.500000
v -0.500000 0.500000 -2.300020
v -0.500000 0.441427 -2.441427
v 0.500000 0.300020 -2.500000
v 0.500000 0.441427 -2.441427
v 0.500000 0.500000 -2.300020
v -0.500000 0.000000 -2.300020
v -0.500000 0.199980 -2.500000
v -0.500000 0.058573 -2.441427
v 0.500000 0.000000 -2.300020
v 0.500000 0.058573 -2.441427
v 0.500000 0.199980 -2.500000
vt 0.375000 0.000000
vt 0.625000 0.250000
vt 0.375000 0.490001
vt 0.625000 0.759999
vt 0.625000 1.000000
vt 0.375000 1.000000
vt 0.625000 0.599990
vt 0.375000 0.650010
vt 0.375000 0.599990
vt 0.625000 0.490001
vt 0.375000 0.759999
vt 0.625000 0.650010
vt 0.134999 0.000000
vt 0.375000 0.250000
vt 0.134999 0.250000
vt 0.125000 0.150010
vt 0.125000 0.099990
vt 0.875000 0.150010
vt 0.865001 0.250000
vt 0.625000 0.000000
vt 0.865001 -0.000000
vt 0.875000 0.099990
vt 0.125000 0.250000
vt 0.375000 0.500000
vt 0.625000 0.500000
vt 0.875000 0.250000
vt 0.125000 0.000000
vt 0.375000 0.750000
vt 0.625000 0.750000
vt 0.875000 0.000000
vn 0.000000 0.000000 1.000000
vn 0.000000 0.000000 1.000000
vn 0.000000 0.000000 1.000000
vn 0.000000 0.000000 1.000000
vn 0.000000 1.000000 0.000000
vn 0.000000 1.000000 0.000000
vn 0.000000 0.999930 -0.011853
vn 0.000000 0.999930 -0.011853
vn 0.000000 0.235752 -0.971813
vn 0.000000 0.235752 -0.971813
vn 0.000000 -0.235752 -0.971813
vn 0.000000 -0.235752 -0.971813
vn 0.000000 -0.999930 -0.011853
vn 0.000000 -0.999930 -0.011853
vn 0.000000 -1.000000 0.000000
vn 0.000000 -1.000000 0.000000
vn 0.000000 0.707107 -0.707107
vn 0.000000 0.707107 -0.707107
vn 0.000000 -0.707107 -0.707107
vn 0.000000 -0.707107 -0.707107
vn -1.000000 0.000000 0.000000
vn -1.000000 0.000000 0.000000
vn -1.000000 0.000000 0.000000
vn -1.000000 0.000000 0.000000
vn -1.000000 0.000000 0.000000
vn -1.000000 0.000000 0.000000
vn -1.000000 0.000000 0.000000
vn -1.000000 0.000000 0.000000
vn 1.000000 -0.000000 0.000000
vn 1.000000 -0.000000 0.000000
vn 1.000000 -0.000000 0.000000
vn 1.000000 -0.000000 0.000000
vn 1.000000 -0.000000 0.000000
vn 1.000000 -0.000000 0.000000
vn 1.000000 -0.000000 0.000000
vn 1.000000 -0.000000 0.000000
s off
f 1/1/1 2/20/2 4/2/3 3/14/4
s 1
f 3/14/5 4/2/6 10/10/7 6/3/8
f 5/9/9 8/7/10 16/12/11 12/8/12
f 11/11/13 14/4/14 2/5/15 1/6/16
f 5/9/9 7/24/17 9/25/18 8/7/10
f 7/24/17 6/3/8 10/10/7 9/25/18
f 11/11/13 13/28/19 15/29/20 14/4/14
f 13/28/19 12/8/12 16/12/11 15/29/20
s off
f 11/13/21 1/1/22 3/14/23 6/15/24 7/23/25 5/16/26 12/17/27 13/27/28
f 8/18/29 9/26/30 10/19/31 4/2/32 2/20/33 14/21/34 15/30/35 16/22/36
